<svg width="860" height="300" viewBox="0 0 860 300" fill="none" xmlns="http://www.w3.org/2000/svg">
<path fill-rule="evenodd" clip-rule="evenodd" d="M204.529 0C205.49 0.01002 207.001 0.801601 207.882 1.76352C208.953 2.93586 209.374 4.84969 208.783 11.533L216.041 12.2845C222.919 12.996 223.299 13.1663 223.299 15.541C223.299 17.9759 223.099 18.046 209.284 18.046L208.933 25.8116C208.733 30.0801 208.483 48.4568 208.163 99.7092L212.227 101.463C215.691 102.956 216.291 103.667 216.291 109.228H190.263L190.513 106.503C190.673 104.749 191.654 103.346 193.266 102.555C194.648 101.873 196.56 101.072 197.521 100.761C199.143 100.25 199.273 97.7452 199.273 66.8936C199.283 48.567 198.942 30.0801 197.771 18.026L192.265 18.0661C189.232 18.0861 182.705 18.9278 177.749 19.9398C172.794 20.9518 166.707 22.3647 164.234 23.0761C161.461 23.8677 158.568 24.0681 156.726 23.5771C153.733 22.7955 153.743 22.7855 159.729 20.04C163.033 18.517 169.56 16.3326 174.245 15.1803C178.93 14.018 185.458 12.8156 188.761 12.495C192.065 12.1743 195.779 11.7134 197.02 11.4729C199.022 11.0821 199.203 10.6212 198.632 7.27453C198.081 4.06813 198.332 3.2565 200.384 1.7535C201.695 0.791581 203.567 0 204.529 0V0ZM149.218 22.7454C151.15 23.0561 153.512 24.038 154.473 24.9398C155.555 25.9318 156.015 27.3446 155.655 28.5671C155.294 29.8296 157.006 34.6592 160.27 41.5931C163.113 47.6552 166.697 55.5409 168.219 59.1281C169.74 62.7153 172.453 68.7974 174.265 72.6551C177.018 78.5469 177.359 80.0299 176.398 81.9236C175.767 83.1661 172.884 85.2803 169.991 86.613C167.097 87.9557 161.351 89.5088 157.226 90.0599C152.952 90.631 146.705 90.7212 142.71 90.2803C138.856 89.8495 133.34 88.7473 130.447 87.8354C127.133 86.7934 124.44 85.1601 123.159 83.4266C122.038 81.9136 121.137 79.8796 121.157 78.9176C121.187 77.3445 122.468 77.1641 146.214 77.1641L146.625 73.4066C146.845 71.3425 146.915 64.9197 146.775 59.1281C146.635 53.3365 146.465 44.9999 146.385 40.5911C146.304 36.032 145.884 33.0059 145.393 33.5771C144.923 34.1282 141.009 42.4648 136.694 52.1141C132.379 61.7533 128.255 70.6611 127.524 71.9036C126.793 73.1461 125.522 74.1581 124.691 74.1581C123.86 74.1581 123.179 74.0479 123.159 73.9076C123.149 73.7673 125.341 68.6972 128.044 62.6351C130.747 56.573 134.982 47.3245 137.465 42.0941C141.379 33.8576 141.9 32.0039 141.349 28.3566C140.768 24.519 140.929 24.0581 143.211 23.1663C144.583 22.6252 147.286 22.4348 149.218 22.7454V22.7454ZM151.22 76.1621C171.132 76.1621 171.232 76.1421 170.611 73.9076C170.271 72.6651 166.517 64.2082 162.272 55.1201C158.027 46.0219 153.823 37.2344 152.922 35.5811C151.38 32.7254 151.3 33.6773 151.26 54.3686L151.22 76.1621ZM326.663 73.2764C327.073 73.2062 328.255 75.9717 329.286 79.4186C330.317 82.8655 332.88 91.7633 334.982 99.2082C337.074 106.643 339.137 113.186 339.547 113.737C339.968 114.288 340.608 107.976 340.969 99.7092C341.339 91.4427 341.409 83.5469 341.119 82.1741C340.638 79.8796 340.859 79.6992 343.762 79.9798C345.514 80.1501 347.516 79.6992 348.227 78.9778C348.947 78.2563 349.508 78.0058 349.478 78.4166C349.458 78.8275 348.988 80.0699 348.437 81.1721C347.796 82.4447 347.706 88.7974 348.187 98.6671C348.597 107.184 349.188 113.837 349.498 113.447C349.818 113.056 351.31 108.226 352.842 102.715C354.363 97.2042 356.926 88.2964 361.451 73.1561L366.206 73.7874C368.819 74.1381 372.543 75.2102 374.466 76.1621C376.398 77.1241 379.341 79.4286 381.013 81.2924C382.695 83.1561 384.827 86.7132 385.748 89.1881C386.679 91.6631 388.601 101.813 390.023 111.733C391.434 121.653 392.876 133.597 393.216 138.286C393.777 146.122 393.657 146.984 391.654 149.058C390.213 150.551 388.301 151.312 385.978 151.312C383.806 151.312 381.714 150.551 380.472 149.308C379.371 148.206 378.26 146.292 377.999 145.05C377.739 143.807 376.358 135.13 374.926 125.761C373.505 116.392 372.133 108.507 371.873 108.226C371.612 107.946 371.422 118.657 371.462 156.322H365.356C359.689 156.322 358.999 156.573 352.441 163.336L352.541 175.11C352.601 181.583 352.932 190.861 353.292 195.731C353.883 203.727 354.213 204.819 356.696 207.003C358.818 208.877 360.59 209.428 369.46 209.428L369.49 229.719C369.53 248.587 369.39 250.2 367.488 252.765C366.277 254.408 364.144 255.751 362.202 256.092C360.41 256.402 357.707 256.172 356.195 255.591C354.674 254.999 352.772 253.065 351.931 251.262C350.709 248.627 350.289 240.23 348.937 165.841L343.431 165.34L342.931 250.16L340.178 254.338C338.666 256.643 335.282 259.909 332.67 261.603C328.765 264.128 327.194 264.589 323.91 264.168C321.337 263.837 319.265 262.825 318.114 261.342C317.122 260.069 316.332 257.675 316.352 256.021C316.372 254.248 317.553 251.583 319.245 249.508C320.817 247.575 322.618 244.989 323.259 243.747C324.12 242.063 324.16 235.19 323.409 216.693C322.859 203.056 321.958 182.875 321.427 171.853C320.887 160.831 320.156 141.663 319.805 129.268C319.455 116.863 318.934 106.272 318.644 105.721C318.354 105.17 316.892 109.679 315.401 115.741C313.909 121.803 311.947 128.226 311.036 130.02C310.135 131.813 307.932 134.338 306.14 135.641C304.348 136.954 297.931 141.092 291.875 144.849C285.658 148.707 279.671 151.713 278.14 151.753C276.568 151.783 274.446 150.841 273.134 149.529C271.552 147.956 270.852 146.072 270.852 143.426C270.852 141.322 271.532 138.787 272.353 137.805C273.184 136.823 278.36 132.966 283.866 129.238C291.624 123.988 294.267 121.593 295.629 118.597C296.59 116.473 298.762 108.647 300.474 101.212C302.176 93.7673 304.158 86.5529 304.879 85.1801C305.61 83.7974 307.262 81.7232 308.553 80.5509C309.834 79.3886 312.027 77.6952 313.398 76.7934C314.78 75.8816 318.154 74.7493 320.907 74.2683C323.66 73.7874 326.253 73.3365 326.663 73.2764V73.2764ZM831.469 76.2723C837.966 76.1721 840.318 76.5729 843.922 78.4066C846.365 79.6491 849.298 81.9437 850.429 83.4968C852.271 86.0218 852.542 88.1962 852.992 104.038C853.273 113.777 853.833 122.314 854.244 123.006C854.654 123.697 856.126 124.258 857.497 124.258C859.61 124.258 860 124.729 860 127.264C860 129.869 859.499 130.421 856.246 131.402C854.184 132.024 850.239 132.294 847.486 132.004C843.742 131.613 841.91 130.821 837.976 126.262L832.219 128.958C828.966 130.481 824.07 131.823 820.957 132.054C817.433 132.314 813.919 131.893 811.196 130.871C808.854 129.99 806.271 128.256 805.46 127.014C804.649 125.771 803.538 123.176 802.997 121.252C802.457 119.318 802.316 116.392 802.687 114.739C803.057 113.086 804.729 110.36 806.401 108.687C808.073 107.004 811.927 104.809 814.95 103.797C817.984 102.775 824.291 101.673 837.475 100.711L837.725 96.4527C837.936 92.8755 837.495 91.7132 834.972 89.1881C832.179 86.3926 831.459 86.1821 824.711 86.2022C820.717 86.2222 815.431 86.6731 812.948 87.2242C810.475 87.7653 808.393 88.096 808.333 87.9457C808.273 87.8054 807.933 85.9918 806.942 80.1701L813.198 78.6872C816.642 77.8755 820.356 77.0238 821.458 76.8034C822.559 76.5729 827.064 76.3425 831.469 76.2723V76.2723ZM821.538 111.232C819.916 112.775 818.915 114.799 818.925 116.493C818.945 118.306 819.896 119.97 821.708 121.342C823.83 122.956 825.332 123.296 828.215 122.845C830.277 122.525 833.11 121.693 834.502 121.002C836.814 119.859 837.035 119.198 837.005 113.487C836.975 107.304 836.945 107.224 834.222 107.334C832.71 107.405 829.827 107.745 827.825 108.086C825.812 108.437 822.989 109.849 821.538 111.232ZM42.8506 121.292C61.6713 121.262 68.9593 121.593 71.382 122.585C73.174 123.316 76.3775 125.461 78.4998 127.344C80.6222 129.228 84.096 134.148 86.2083 138.286C88.3206 142.414 91.9847 147.976 94.3573 150.631C96.9301 153.517 100.274 156.032 102.666 156.883C104.869 157.665 115.22 159.659 125.672 161.322C138.486 163.356 145.494 164.058 147.195 163.477C148.587 162.996 154.453 160.21 160.23 157.274C169.45 152.585 171.502 151.923 176.918 151.873C181.703 151.823 183.736 152.294 185.928 153.927C187.49 155.09 188.761 156.633 188.761 157.354C188.761 158.076 184.937 162.064 180.252 166.212C175.577 170.35 170.962 174.899 170.001 176.302C169.039 177.715 168.249 179.99 168.249 181.372C168.249 182.745 169.15 185.34 170.241 187.134C171.342 188.927 173.935 191.112 175.997 191.993C179.01 193.286 180.442 193.376 183.255 192.484C185.187 191.873 189.112 189.689 191.985 187.625C194.858 185.561 199.043 182.525 201.285 180.871C204.719 178.336 205.7 178.036 207.572 178.977C208.793 179.579 214.74 184.278 220.796 189.398C226.853 194.529 234.632 201.242 238.095 204.328C243.221 208.897 244.362 210.48 244.322 212.935C244.292 214.589 243.491 216.743 242.54 217.725C241.599 218.707 239.577 219.498 238.065 219.478C236.113 219.458 232.129 216.843 224.3 210.43C218.244 205.47 212.758 201.523 212.117 201.663C211.476 201.803 214.489 205.07 218.824 208.927C223.149 212.785 228.185 217.404 230.007 219.198C232.489 221.653 233.16 223.015 232.7 224.709C232.369 225.951 231.488 227.605 230.747 228.386C230.007 229.168 228.145 229.809 226.603 229.819C224.551 229.829 221.027 227.565 213.498 221.382C207.832 216.743 202.757 212.825 202.236 212.685C201.705 212.545 201.485 212.995 201.735 213.687C201.986 214.378 206.27 218.436 211.246 222.705C218.914 229.278 220.296 230.931 220.296 233.476C220.296 235.48 219.545 236.987 218.043 237.995C216.802 238.827 214.78 239.498 213.538 239.498C212.137 239.488 207.712 236.292 201.776 230.971C196.55 226.282 191.254 222.234 190.013 221.953C188.761 221.673 187.099 220.06 186.258 218.286C185.438 216.543 183.636 214.278 182.254 213.246C180.883 212.204 178.63 211.392 177.249 211.422C175.527 211.472 174.355 210.691 173.494 208.957C172.804 207.565 170.781 205.521 168.989 204.418C167.197 203.326 164.725 202.424 163.483 202.414C161.962 202.414 160.58 201.282 159.229 198.907C158.077 196.883 155.745 194.759 153.723 193.897C151.8 193.076 149.208 192.645 147.966 192.955C146.194 193.396 145.023 192.655 142.46 189.448C140.668 187.214 137.515 184.268 135.453 182.905C132.529 180.971 127.954 179.809 114.68 177.595C102.987 175.651 95.939 173.947 92.1549 172.144C88.9113 170.601 84.5965 167.314 81.6433 164.128C78.8903 161.162 74.986 155.601 69.3197 144.799L68.7491 157.324C68.4388 164.208 67.9282 183.597 67.6178 200.41C67.2975 217.214 66.7969 233.226 66.4966 235.981C65.9961 240.54 66.2864 241.492 73.3341 252.013L86.4986 256.813C93.7366 259.458 103.718 262.735 108.673 264.087C113.628 265.45 123.429 267.685 130.447 269.057C137.465 270.43 149.178 272.224 156.476 273.045C163.774 273.867 172.643 274.649 182.624 275.059L182.755 290.21L177.249 289.879C174.225 289.699 166.116 289.077 159.229 288.496C152.351 287.915 141.539 286.552 135.202 285.45C128.875 284.358 118.964 282.334 113.178 280.961C107.402 279.588 97.2605 276.633 90.6532 274.378C84.0459 272.134 73.9148 268.296 68.1284 265.841C62.352 263.386 56.3254 260.18 54.7337 258.707C53.1519 257.224 51.0196 254.218 50.0085 252.013C48.3466 248.436 48.1464 245.17 48.1064 195.4H41.0987V222.955C41.0987 250.1 41.0686 250.55 38.8462 253.076C37.4246 254.689 35.4825 255.671 33.5904 255.731C31.9386 255.771 29.576 255.52 28.3346 255.17C27.0432 254.799 25.4414 253.015 24.5805 251.011C23.6194 248.777 23.0788 244.328 23.0888 238.737C23.0888 233.917 22.3781 212.615 21.4971 191.392C20.6161 170.17 19.595 152.495 19.2346 152.104C18.8742 151.713 18.2335 157.805 17.823 165.631C17.4126 173.466 17.0822 182.685 17.0722 186.132C17.0722 191.322 16.6618 192.865 14.6596 195.15C12.7475 197.334 11.3659 197.905 8.0623 197.905C4.78869 197.905 3.45723 197.364 1.92554 195.4C0.103537 193.066 -0.026606 191.202 0.00342701 167.845C0.023449 148.807 0.383846 141.593 1.50508 137.785C2.51619 134.348 4.32819 131.473 7.27143 128.627C9.63403 126.352 12.9176 123.777 14.5695 122.905C17.0622 121.603 21.8575 121.322 42.8506 121.292V121.292Z" fill="#253E5E"/>
<path fill-rule="evenodd" clip-rule="evenodd" d="M227.684 14.4288C229.956 14.7695 235.633 16.3326 240.318 17.8957C245.003 19.4689 250.289 21.4929 252.081 22.4047C254.073 23.4167 256.395 23.8175 258.087 23.4468C259.599 23.1161 261.851 23.1161 263.093 23.4468C265.055 23.9779 265.325 24.6592 265.185 28.8175C265.045 32.9257 266.406 36.543 275.196 55.3706C280.792 67.3545 285.367 78.2964 285.367 79.6691C285.367 81.2322 284.336 82.9457 282.614 84.2282C281.103 85.3605 278.29 86.7032 276.357 87.2042C274.425 87.7152 269.48 88.5969 265.345 89.1781C260.009 89.9296 255.524 89.9196 249.828 89.138C245.423 88.5368 239.907 87.1741 237.565 86.112C235.222 85.0499 232.749 83.0459 232.059 81.6731C231.078 79.7092 231.068 78.6872 232.019 76.9136C232.679 75.6711 237.665 64.7393 243.081 52.6151C249.258 38.8175 252.892 29.4488 252.801 27.565C252.701 25.4408 252.101 24.4688 250.739 24.2684C249.688 24.1081 244.773 22.8957 239.817 21.5831C234.862 20.2705 229.115 18.9378 227.053 18.6172C224.02 18.1562 223.329 17.6352 223.429 15.9318C223.549 14.028 223.99 13.8777 227.684 14.4288V14.4288ZM243.321 57.6251C239.617 65.8916 236.293 73.6671 235.943 74.9096C235.312 77.1541 235.372 77.1641 245.243 76.9136C250.699 76.7733 255.394 76.4427 255.665 76.1621C255.935 75.8815 256.315 66.082 256.496 54.3686C256.736 39.4488 256.506 33.076 255.745 33.076C255.144 33.076 253.622 35.2203 252.361 37.8355C251.1 40.4508 247.035 49.3586 243.321 57.6251V57.6251ZM260.84 76.6631L281.363 77.1641C280.452 72.8956 276.217 63.086 271.372 52.6151C266.517 42.1442 262.102 33.4267 261.541 33.2364C260.88 33.0159 260.59 40.4608 260.69 54.7794L260.84 76.6631ZM343.722 75.13C346.595 75.12 349.278 75.4507 349.688 75.8815C350.099 76.3124 349.648 77.4647 348.687 78.4467C347.726 79.4286 345.804 80.2102 344.432 80.1902C343.051 80.1601 341.439 79.8094 340.848 79.3986C340.258 78.9978 339.497 77.8755 339.147 76.9136C338.596 75.3906 339.197 75.1601 343.722 75.13V75.13ZM316.341 256.322C316.692 258.356 317.292 260.591 317.683 261.282C318.083 261.973 319.415 262.915 320.656 263.396C322.879 264.238 322.869 264.268 319.905 265.811C318.254 266.663 311.947 269.148 305.89 271.322C299.833 273.496 288.341 276.913 280.362 278.907C272.373 280.911 260.44 283.466 253.833 284.588C247.225 285.721 236.293 287.194 217.282 289.087L215.03 292.554C213.799 294.458 211.206 296.903 209.284 297.985C207.311 299.087 203.808 299.969 201.275 299.999C198.792 300.029 194.818 299.168 192.425 298.075C189.528 296.759 187.102 294.598 185.147 291.592C182.584 287.665 182.244 286.292 182.484 280.921C182.634 277.534 183.085 274.939 183.505 275.16C183.916 275.38 185.037 274.378 186.008 272.945C186.969 271.502 189.111 269.528 190.763 268.556C192.415 267.584 195.448 266.502 197.521 266.162C199.583 265.821 203.187 266.031 205.529 266.623C208.182 267.304 211.286 269.198 217.793 275.641L228.305 274.548C234.081 273.947 244.222 272.554 250.829 271.442C257.437 270.34 268.018 268.126 274.355 266.522C280.682 264.929 291.724 261.653 298.882 259.248C306.04 256.843 312.757 254.368 313.809 253.747C315.521 252.725 315.781 252.995 316.341 256.322Z" fill="#6D6F71"/>
<path d="M249.328 24.9899C247.956 24.9398 244.572 24.068 241.819 23.056C239.066 22.044 237.374 21.1722 238.065 21.1321C238.756 21.082 240.558 21.543 242.07 22.1341C243.581 22.7354 246.564 23.5269 248.707 23.8877C252.111 24.4788 252.621 24.9297 252.861 27.565C253.022 29.2183 252.761 31.2423 252.301 32.074C251.77 33.0359 251.53 32.054 251.65 29.3185C251.81 25.4207 251.62 25.06 249.328 24.9899Z" fill="#656D77" fill-opacity="0.46"/>
<path d="M265.155 28.7574C265.676 25.9017 265.465 24.6792 264.344 23.9177C263.013 23.0159 263.013 22.9458 264.344 23.3165C265.415 23.6171 265.856 25.1602 265.886 28.6572C265.906 31.3626 266.697 35.0399 267.638 36.8335C268.579 38.6271 269.33 40.4307 269.3 40.8415C269.28 41.2523 268.178 39.569 266.867 37.084C264.975 33.5369 264.614 31.7634 265.155 28.7574Z" fill="#656D77" fill-opacity="0.46"/>
<path d="M199.022 63.136C198.842 70.0298 198.702 64.8395 198.702 51.613C198.702 38.3866 198.842 32.7453 199.022 39.088C199.192 45.4307 199.192 56.2423 199.022 63.136Z" fill="#656D77" fill-opacity="0.46"/>
<path d="M209.033 84.1781C208.863 93.2762 208.733 86.0618 208.733 68.1461C208.733 50.2303 208.863 42.7954 209.033 51.613C209.193 60.4306 209.193 75.0799 209.033 84.1781Z" fill="#656D77" fill-opacity="0.46"/>
<path d="M266.847 89.148C270.15 88.627 273.304 87.9957 273.855 87.7652C274.405 87.5348 275.536 87.3344 276.357 87.3244C277.178 87.3143 276.728 87.7552 275.356 88.2963C273.975 88.8474 270.15 89.4787 260.84 90.1099L266.847 89.148Z" fill="#656D77" fill-opacity="0.46"/>
<path d="M54.6132 121.002C48.5566 121.172 38.1951 121.172 31.5879 121.002C24.9806 120.821 29.9361 120.681 42.6 120.681C55.2639 120.681 60.6699 120.821 54.6132 121.002Z" fill="#656D77" fill-opacity="0.46"/>
<path d="M371.462 156.322L371.672 144.549L371.882 132.775L372.203 143.797C372.373 149.859 372.273 155.38 371.983 156.072C371.632 156.913 369.42 157.264 358.948 156.933L371.462 156.322Z" fill="#656D77" fill-opacity="0.46"/>
<path d="M68.8589 173.857C68.6487 176.062 68.4785 173.807 68.4885 168.847C68.4885 163.887 68.6587 162.084 68.8689 164.839C69.0691 167.595 69.0691 171.653 68.8589 173.857Z" fill="#656D77" fill-opacity="0.46"/>
<path d="M353.182 177.364C352.982 180.4 352.811 178.366 352.811 172.855C352.811 167.344 352.972 164.869 353.182 167.344C353.382 169.819 353.382 174.328 353.182 177.364Z" fill="#656D77" fill-opacity="0.46"/>
<path d="M47.8558 236.983C47.6656 241.392 47.5154 237.334 47.5154 227.965C47.5154 218.597 47.6656 214.989 47.8558 219.949C48.036 224.909 48.036 232.574 47.8558 236.983Z" fill="#656D77" fill-opacity="0.46"/>
<path d="M280.362 264.869C278.059 265.27 278.75 264.829 282.364 263.606C285.397 262.574 288.551 261.713 289.372 261.703C290.203 261.683 289.302 262.254 287.369 262.965C285.447 263.687 282.294 264.538 280.362 264.869Z" fill="#656D77" fill-opacity="0.46"/>
<path d="M220.796 275.43C218.444 275.56 216.932 274.669 213.788 271.322L209.784 267.043L213.788 270.731C215.991 272.755 219.144 274.598 223.799 275.26L220.796 275.43Z" fill="#656D77" fill-opacity="0.46"/>
<path d="M301.385 273.115C301.115 272.895 303.587 271.813 306.891 270.711C310.195 269.608 313.238 268.677 313.648 268.626C314.059 268.586 314.399 268.777 314.399 269.047C314.399 269.328 311.586 270.45 308.142 271.542C304.699 272.635 301.665 273.346 301.385 273.115Z" fill="#656D77" fill-opacity="0.46"/>
<path d="M228.304 274.328C225.141 274.268 225.241 274.198 229.306 273.556C231.788 273.176 235.612 272.855 237.815 272.845C241.609 272.825 241.549 272.865 236.814 273.606C234.061 274.037 230.237 274.358 228.304 274.328Z" fill="#656D77" fill-opacity="0.46"/>
<path d="M239.817 287.384C237.264 287.314 237.414 287.194 240.818 286.582C243.021 286.192 246.174 285.861 247.826 285.841C250.319 285.821 250.138 285.961 246.825 286.642C244.622 287.103 241.469 287.434 239.817 287.384Z" fill="#656D77" fill-opacity="0.46"/>
<path fill-rule="evenodd" clip-rule="evenodd" d="M45.2733 15.0401L101.665 14.97L104.418 17.5151C107.161 20.0401 107.171 20.1002 107.171 33.5771C107.171 46.4428 107.051 47.2344 102.346 52.6152L83.3853 53.1162C68.7992 53.4969 63.9839 53.9578 62.5223 55.0901C61.4711 55.9017 58.4578 58.3867 55.8249 60.6011C53.192 62.8256 50.8294 64.4187 50.5792 64.1382C50.3389 63.8576 50.7994 61.3827 51.6103 58.6272C52.4212 55.8717 53.1019 53.6172 53.1119 53.6172C53.132 53.6172 50.9896 53.3166 48.3667 52.9458C45.0331 52.4849 42.9307 51.5029 41.349 49.6893C39.2567 47.2945 39.0965 46.1222 38.9764 20.2305L45.2733 15.0401ZM477.079 49.1983C482.585 49.1783 489.122 49.6092 491.595 50.1603C494.077 50.7114 496.67 51.3727 497.351 51.6332C498.352 52.014 498.332 53.1863 497.281 57.3747C496.56 60.2705 495.549 62.555 495.028 62.4749C494.518 62.3847 490.493 61.563 486.088 60.6412C481.123 59.6091 476.178 59.2083 473.074 59.5891C470.321 59.9198 465.706 61.533 462.813 63.1662C458.879 65.4007 456.816 67.4548 454.594 71.4027C452.822 74.539 451.17 79.4888 450.489 83.6772C449.638 88.9377 449.648 92.3145 450.519 97.2042C451.16 100.781 452.672 105.681 453.873 108.096C455.074 110.501 457.747 113.998 459.81 115.861C461.942 117.775 465.846 119.9 468.819 120.761C471.713 121.593 476.218 122.264 478.831 122.264C481.453 122.254 486.859 121.553 490.844 120.691C494.838 119.829 498.172 119.268 498.252 119.439C498.332 119.609 498.562 121.723 498.752 124.148C499.103 128.467 499.033 128.577 495.098 130.1C492.165 131.232 487.1 131.663 476.077 131.703C462.893 131.763 460.4 131.503 455.555 129.579C452.532 128.376 447.646 125.22 444.693 122.565C441.309 119.519 438.266 115.531 436.434 111.733C434.612 107.966 433.18 102.906 432.62 98.2062C432.089 93.8375 432.069 88.1662 432.58 84.6792C433.06 81.3726 434.181 76.6331 435.072 74.1582C435.963 71.6732 437.946 67.8456 439.467 65.6412C440.989 63.4368 443.992 60.2304 446.145 58.5069C448.297 56.7935 451.52 54.6592 453.302 53.7474C455.094 52.8456 458.929 51.4629 461.812 50.6713C464.705 49.8797 471.573 49.2184 477.079 49.1983V49.1983ZM778.661 59.2284C779.582 59.1482 779.912 61.543 779.912 77.1642H788.421C794.558 77.1642 796.941 77.5149 796.951 78.4167C796.951 79.1081 796.61 81.1421 795.429 86.2223L779.912 86.1822L779.932 102.465C779.942 111.423 780.272 119.278 780.683 119.92C781.083 120.571 782.765 121.603 784.417 122.234C786.369 122.966 789.292 123.086 798.112 121.753L797.772 125.701C797.441 129.519 797.271 129.689 792.426 130.942C789.673 131.653 784.607 132.244 781.163 132.254C776.939 132.264 773.695 131.653 771.152 130.35C769.09 129.298 766.727 127.374 765.896 126.092C764.725 124.268 764.345 119.629 763.894 86.1822H759.89C757.687 86.1822 755.885 85.8415 755.875 85.4307C755.865 85.0199 756.116 83.3265 756.426 81.6732C756.917 79.1181 757.587 78.557 764.895 77.1642L764.885 69.6692C764.875 62.6953 765.036 62.1342 767.138 61.6432C768.389 61.3526 771.202 60.7214 773.405 60.2204C775.607 59.7294 777.98 59.2785 778.661 59.2284V59.2284ZM44.6727 71.3526C50.2588 71.5831 52.5413 72.1843 55.4545 74.1582C57.4868 75.5309 60.3799 78.4668 61.8916 80.6712C64.3143 84.2183 64.6246 85.601 64.6246 92.6952C64.6246 99.7293 64.2943 101.202 61.9417 104.719C60.46 106.924 57.0863 109.95 54.4334 111.453C51.2099 113.266 48.1164 114.178 45.1031 114.198C42.6304 114.208 39.0264 113.787 37.0943 113.246C35.1722 112.715 31.8285 110.801 29.6561 108.998C27.4938 107.194 24.9209 103.918 23.9298 101.713C22.9387 99.5088 22.1178 95.3405 22.1078 92.4447C22.0878 89.2083 22.8186 85.7313 23.9899 83.4267C25.0411 81.3626 27.1834 78.4568 28.7451 76.9738C30.3068 75.4909 32.9397 73.557 34.5916 72.6652C36.7439 71.5129 39.6071 71.1422 44.6727 71.3526V71.3526ZM538.146 76.4929C544.843 76.7133 548.187 77.3245 551.16 78.8576C553.363 79.9999 556.776 82.6752 558.738 84.8095C560.701 86.9437 562.933 90.4908 563.694 92.6952C564.455 94.8996 565.085 100.08 565.085 104.218C565.085 110.3 564.575 112.825 562.382 117.495C560.851 120.751 558.148 124.449 556.146 126.012C554.213 127.525 550.72 129.529 548.387 130.461C545.754 131.523 541.229 132.184 536.394 132.214C530.718 132.254 527.094 131.683 522.879 130.07C519.565 128.807 515.531 126.252 513.369 124.058C510.936 121.583 509.084 118.407 508.103 114.99C507.272 112.094 506.601 107.134 506.601 103.968C506.611 100.801 507.482 95.8415 508.543 92.9457C509.875 89.2884 511.937 86.3626 515.301 83.3566C517.954 80.9818 522.158 78.3967 524.631 77.6151C527.544 76.6933 532.329 76.2925 538.146 76.4929V76.4929ZM525.662 91.4427C524.291 94.3686 523.67 97.8856 523.65 102.715C523.63 106.573 524.291 112.094 525.121 114.99C526.283 119.008 527.404 120.721 529.887 122.244C531.679 123.346 534.382 124.248 535.893 124.248C537.415 124.258 539.888 123.637 541.399 122.896C542.921 122.144 545.053 119.769 546.155 117.635C547.746 114.539 548.157 111.773 548.157 104.218C548.147 96.6531 547.736 93.9076 546.155 90.8816C544.963 88.6071 542.841 86.4828 540.899 85.6211C539.117 84.8295 536.864 84.1982 535.893 84.2183C534.932 84.2383 532.68 84.9097 530.888 85.7213C528.719 86.6966 526.977 88.6037 525.662 91.4427V91.4427ZM589.863 77.1341C590.223 77.4247 590.694 78.567 590.924 79.6692C591.144 80.7714 591.755 81.573 592.265 81.4528C592.786 81.3325 596.14 80.0399 599.714 78.587C605.14 76.3726 607.402 75.9818 613.309 76.2925C619.135 76.5931 621.047 77.1442 624.07 79.4187C626.363 81.1321 628.175 83.587 628.896 85.9317C629.576 88.1662 630.077 98.076 630.247 131.272H614.73L614.48 111.252C614.24 91.9237 614.159 91.1622 611.957 88.9578C610.115 87.1241 608.563 86.6832 603.948 86.6832C600.795 86.6832 596.73 87.3546 591.625 89.6892L591.705 131.272H575.687L575.377 106.473C575.217 92.8355 574.756 80.9918 574.356 80.1702C573.775 78.9377 575.066 78.4768 581.423 77.6351C585.708 77.074 589.502 76.8436 589.863 77.1341V77.1341ZM668.79 76.2123C672.374 76.1923 676.989 76.6231 679.051 77.1642C681.123 77.7153 684.217 79.4087 685.948 80.9217C687.67 82.4347 689.973 85.4808 691.064 87.6852C692.145 89.8896 693.327 94.7293 694.318 105.19L656.276 105.721L656.606 108.727C656.776 110.381 657.707 113.306 658.658 115.24C659.79 117.515 661.962 119.539 664.845 121.012C667.738 122.485 671.042 123.266 674.296 123.246C677.049 123.236 681.904 122.665 685.078 121.984C690.534 120.811 690.874 120.851 691.414 122.755C691.735 123.857 691.835 125.661 691.645 126.763C691.384 128.316 689.753 129.168 684.307 130.571C679.331 131.853 674.696 132.284 668.289 132.034C660.601 131.733 658.488 131.252 653.813 128.717C650.8 127.094 646.936 123.958 645.224 121.753C643.302 119.278 641.61 115.441 640.789 111.733C639.758 107.024 639.728 104.308 640.619 99.2082C641.239 95.6211 642.881 90.7814 644.263 88.4367C645.644 86.092 648.457 83.0459 650.519 81.6632C652.592 80.2904 656.076 78.5069 658.278 77.7053C660.48 76.9037 665.216 76.2323 668.79 76.2123V76.2123ZM658.528 90.5509C657.567 92.5549 656.776 95.1 656.776 96.2022C656.776 98.076 657.447 98.2062 667.288 98.2062H677.799C677.799 93.5469 677.129 90.8415 676.298 89.1882C675.477 87.5349 673.675 85.7313 672.293 85.1802C670.922 84.6291 668.78 84.1982 667.538 84.2183C666.307 84.2383 664.164 84.8495 662.783 85.581C661.411 86.3125 659.499 88.5469 658.528 90.5509ZM737.365 76.5329C742.871 76.7434 748.197 77.3045 749.198 77.7854C750.6 78.4668 750.87 79.3486 750.369 81.6732C750.019 83.3265 749.538 85.3505 749.298 86.1822C748.918 87.5049 747.987 87.5149 741.61 86.3025C737.255 85.4808 732.77 85.2203 730.357 85.6712C727.885 86.1221 725.162 87.6051 723.23 89.5489C721.508 91.2824 719.596 94.4988 718.985 96.7032C718.364 98.9076 717.854 102.064 717.854 103.717C717.854 105.371 718.304 108.417 718.855 110.481C719.405 112.545 721.137 115.701 722.699 117.495C724.511 119.559 727.344 121.272 730.457 122.184C734.482 123.356 736.584 123.397 742.12 122.435C745.844 121.783 749.328 121.252 749.879 121.252C750.429 121.252 750.88 123.056 750.88 125.26C750.88 128.888 750.58 129.368 747.626 130.34C745.844 130.932 740.098 131.673 734.862 131.994C727.594 132.435 724.171 132.184 720.346 130.952C717.593 130.06 713.429 127.966 711.086 126.292C708.123 124.178 706.031 121.503 704.189 117.495C702.126 113.016 701.536 110.17 701.526 104.719C701.516 99.3285 702.076 96.5529 703.928 92.7553C705.25 90.0399 708.363 86.062 710.836 83.9277C713.469 81.6632 717.844 79.2283 721.347 78.0961C726.123 76.543 729.406 76.2223 737.365 76.5329ZM217.793 112.204L226.052 116.232C231.879 119.068 234.502 120.912 234.932 122.505C235.282 123.747 235.282 125.551 234.932 126.513C234.361 128.126 231.959 128.266 203.778 128.266C175.607 128.266 173.204 128.126 172.633 126.513C172.303 125.551 172.513 123.627 173.114 122.254C173.875 120.511 175.957 119.088 179.982 117.565C183.165 116.373 186.379 114.679 187.129 113.807C188.251 112.505 191.064 112.234 217.793 112.204V112.204ZM199.203 235.49C199.513 235.5 201.575 237.024 203.778 238.877C207.402 241.923 207.642 242.404 206.281 243.917C205.46 244.839 203.878 245.591 202.777 245.581C201.675 245.581 199.753 244.779 198.502 243.787C196.45 242.164 196.35 241.683 197.431 238.737C198.082 236.943 198.882 235.48 199.203 235.49Z" fill="#253E5E"/>
<path d="M328.375 30.8215C331.328 27.3546 333.711 25.6612 337.174 24.5791C339.827 23.7474 343.812 23.3065 346.184 23.5771C348.527 23.8376 352.241 24.9598 354.444 26.062C356.946 27.3145 359.579 29.8496 361.461 32.8256C364.024 36.8536 364.485 38.5871 364.495 44.0981C364.495 48.9878 363.914 51.7333 362.152 55.1201C360.861 57.605 358.258 60.6511 356.376 61.8936C354.484 63.1461 350.92 64.579 348.437 65.09C345.574 65.6912 342.29 65.6611 339.427 65.0299C336.944 64.4888 333.35 63.0159 331.418 61.7634C329.486 60.5108 327.053 57.7153 325.992 55.5509C324.941 53.3866 323.87 49.589 323.61 47.1041C323.359 44.6191 323.419 41.0119 323.74 39.0881C324.08 37.074 326.062 33.557 328.375 30.8215Z" fill="#6D6F71"/>
<path d="M107.902 41.0921C107.682 43.0159 107.512 41.2223 107.512 37.0841C107.512 32.9458 107.682 31.3726 107.902 33.5771C108.112 35.7815 108.112 39.1682 107.902 41.0921Z" fill="#6D6F71"/>
<path d="M241.319 158.336C242.791 158.346 247.726 155.691 253.272 151.883L262.713 145.42L264.645 149.118C265.706 151.152 267.538 153.857 268.719 155.12C269.89 156.392 272.553 157.965 274.626 158.627C278.27 159.789 278.8 159.619 289.392 154.068C295.439 150.901 300.945 148.326 301.635 148.346C302.326 148.366 301.535 149.499 299.883 150.871C298.232 152.234 290.573 157.635 282.865 162.865C275.156 168.086 266.647 174.058 263.954 176.122C260.01 179.148 258.658 181.022 256.926 185.881C255.745 189.188 254.113 192.835 253.302 193.977C252.491 195.12 250.159 198.056 244.412 204.919L228.735 190.891C214.96 178.577 213.308 176.773 215.17 176.112C216.341 175.701 217.142 174.799 216.952 174.108C216.762 173.416 215.531 172.565 214.199 172.204C212.868 171.843 210.545 171.503 209.033 171.452C207.231 171.382 203.998 172.996 199.693 176.112C196.069 178.727 191.004 182.334 188.431 184.138C185.628 186.092 182.554 187.384 180.752 187.364C179.101 187.344 176.948 186.553 175.967 185.601C174.956 184.629 174.195 182.464 174.215 180.621C174.235 177.965 175.216 176.503 179.501 172.735C182.394 170.19 188.811 164.809 193.767 160.791C198.722 156.763 204.128 152.966 205.78 152.334C208.303 151.382 211.166 151.763 223.8 154.749C232.059 156.703 239.947 158.316 241.319 158.336Z" fill="#6D6F71"/>
<path d="M443.572 189.629C443.562 170.751 443.812 154.639 444.132 153.807C444.573 152.685 446.365 152.304 457.567 152.304L457.577 188.627C457.587 218.226 457.307 225.881 456.075 229.959C455.244 232.715 453.432 236.663 452.061 238.727C450.269 241.422 447.496 243.486 442.3 246.021C438.306 247.965 434.251 249.538 433.29 249.528C432.319 249.508 431.348 248.707 431.118 247.745L430.117 243.737C429.626 241.853 430.277 241.072 434.041 238.977C436.644 237.534 439.237 235.1 440.188 233.216C441.099 231.422 442.23 228.607 442.711 226.953C443.191 225.3 443.582 208.506 443.572 189.629Z" fill="#6D6F71"/>
<path d="M377.269 161.012C377.979 160.36 378.59 158.777 378.61 157.495C378.65 155.541 379.001 155.3 380.823 155.992C382.014 156.442 384.787 156.703 386.989 156.563C389.192 156.422 392.105 156.202 393.466 156.062C395.509 155.851 396.039 156.342 397.01 161.823L404.759 162.074C409.931 162.241 412.628 162.742 412.848 163.577C413.028 164.268 413.028 168.096 412.517 179.358H359.459L359.96 162.825L367.968 162.515C372.373 162.344 376.558 161.663 377.269 161.012Z" fill="#6D6F71"/>
<path d="M584.507 161.402C584.417 160.07 585.167 158.156 586.169 157.144C587.31 156.002 589.462 155.31 591.855 155.31C594.558 155.31 596.36 155.992 597.851 157.565C599.483 159.288 599.834 160.531 599.343 162.825C598.983 164.479 597.911 166.432 596.95 167.164C595.849 168.006 593.747 168.296 591.214 167.965C588.972 167.665 586.649 166.643 585.938 165.631C585.238 164.639 584.597 162.735 584.507 161.402Z" fill="#6D6F71"/>
<path d="M539.297 181.362C539.587 181.092 542.601 180.641 545.994 180.36L552.171 179.859L553.172 183.036C553.723 184.779 554.514 186.583 554.934 187.044C555.355 187.505 556.926 186.663 558.438 185.17C559.94 183.687 562.863 181.773 564.935 180.911C566.997 180.06 570.041 179.358 571.693 179.358C574.135 179.358 574.696 179.779 574.706 181.613C574.716 182.855 574.486 185.33 574.205 187.124C573.735 190.08 573.435 190.33 570.942 189.789C569.42 189.468 566.157 189.739 563.684 190.4C561.201 191.062 557.938 192.454 553.673 195.39V230.46H540.658L540.628 210.17C540.618 199.007 540.198 188.076 539.687 185.871C539.187 183.667 539.007 181.643 539.297 181.362Z" fill="#6D6F71"/>
<path d="M617.313 183.366C618.324 182.545 620.737 181.322 622.699 180.661C624.651 179.99 630.077 179.428 634.752 179.418C639.437 179.398 644.963 179.719 647.036 180.12C650.309 180.761 650.81 181.222 650.79 183.617C650.78 185.13 650.439 186.583 650.019 186.833C649.608 187.084 645.594 186.743 641.099 186.082C633.811 185 632.55 185.06 629.336 186.623C626.523 187.995 625.742 188.977 625.722 191.132C625.702 192.745 626.643 194.759 627.975 195.991C629.226 197.144 634.061 199.619 638.716 201.502C643.372 203.376 648.437 206.152 649.979 207.665C652.421 210.08 652.772 211.172 652.772 216.432C652.772 221.372 652.331 222.975 650.269 225.45C648.647 227.404 645.934 228.987 642.511 229.969C639.627 230.801 634.101 231.482 630.247 231.482C626.393 231.482 620.636 230.911 617.453 230.22C613.519 229.368 611.837 228.557 612.197 227.705C612.488 227.013 612.728 225.33 612.728 221.442L616.982 223.035C619.325 223.917 624.541 224.709 628.575 224.789C635.423 224.939 636.083 224.769 638.336 222.194C639.677 220.681 640.759 218.987 640.759 218.436C640.759 217.885 639.697 216.192 638.386 214.679C637.075 213.166 634.261 211.312 632.129 210.561C629.997 209.809 625.432 207.895 621.988 206.302C617.593 204.268 615.291 202.514 614.229 200.4C613.409 198.747 612.728 195.821 612.728 193.887C612.728 191.963 613.358 189.138 614.109 187.625C614.87 186.112 616.312 184.198 617.313 183.366Z" fill="#6D6F71"/>
<path d="M475.607 224.198C473.845 220.41 473.625 217.735 473.605 200.15L473.575 180.36H486.599L487.09 218.617L489.843 221.031C491.945 222.865 493.737 223.446 497.351 223.426C499.974 223.416 504.028 222.514 510.615 219.438V180.36H523.63L523.66 201.152C523.68 219.458 523.89 222.154 525.412 223.727C526.363 224.709 527.704 225.5 528.385 225.48C529.076 225.47 529.636 226.583 529.636 227.955C529.636 229.869 528.986 230.611 526.883 231.102C525.372 231.452 521.658 231.502 518.624 231.212C514.35 230.801 512.738 230.16 509.684 225.951L504.389 228.436C500.955 230.06 496.83 231.051 492.596 231.282C488.311 231.522 484.637 231.102 481.834 230.049C478.46 228.787 477.179 227.585 475.607 224.198Z" fill="#6D6F71"/>
<path d="M585.708 206.913C585.708 193.967 585.418 182.695 585.057 181.863C584.507 180.611 585.568 180.36 598.722 180.36V230.46H585.708V206.913Z" fill="#6D6F71"/>
<path d="M129.706 195.891C128.885 195.07 128.204 192.815 128.204 190.881C128.204 188.046 128.585 187.374 130.207 187.374C131.308 187.374 133.56 188.957 135.212 190.881C137.705 193.797 138.005 194.649 136.964 195.941C136.273 196.793 134.702 197.464 133.46 197.444C132.219 197.414 130.537 196.723 129.706 195.891Z" fill="#6D6F71"/>
<path d="M140.208 210.571C140.208 208.967 141.529 205.891 143.221 203.557C145.684 200.17 146.835 199.398 149.488 199.378C151.27 199.378 153.302 199.939 154.003 200.631C154.704 201.332 155.264 203.366 155.254 205.16C155.244 207.424 154.243 209.508 151.981 211.983C150.189 213.947 147.936 215.751 146.975 215.991C146.014 216.232 144.102 215.761 142.72 214.929C140.999 213.897 140.218 212.545 140.208 210.571Z" fill="#6D6F71"/>
<path d="M153.382 219.729C153.502 217.595 154.804 215.16 157.256 212.464C159.589 209.909 161.821 208.416 163.343 208.396C164.665 208.396 166.316 208.957 167.017 209.649C167.718 210.35 168.279 211.933 168.269 213.176C168.259 214.418 167.748 216.442 167.127 217.685C166.507 218.927 164.825 221.192 163.373 222.715C161.862 224.318 159.679 225.49 158.238 225.49C156.866 225.49 155.164 224.909 154.473 224.218C153.773 223.516 153.282 221.502 153.382 219.729Z" fill="#6D6F71"/>
<path d="M165.415 229.228C165.536 227.605 167.308 224.649 169.77 221.963C172.703 218.767 174.706 217.434 176.588 217.434C178.51 217.434 179.511 218.126 180.152 219.869C180.642 221.202 180.862 223.456 180.652 224.879C180.442 226.292 178.91 229.037 177.258 230.961C174.986 233.627 173.474 234.478 171.002 234.488C169.21 234.498 167.177 233.927 166.487 233.236C165.786 232.534 165.305 230.731 165.415 229.228Z" fill="#6D6F71"/>
<path d="M178.66 236.723C178.99 235.48 180.782 232.895 182.634 230.961C184.496 229.037 186.969 227.454 188.14 227.454C189.312 227.454 190.954 228.136 191.774 228.957C192.605 229.789 193.276 231.142 193.276 231.963C193.276 232.795 192.796 234.709 192.215 236.222C191.624 237.735 190.163 240.009 188.961 241.262C187.55 242.735 185.618 243.526 183.515 243.516C181.153 243.496 179.961 242.875 179.161 241.232C178.56 239.989 178.33 237.965 178.66 236.723Z" fill="#6D6F71"/>
<path d="M86.1481 14.7896C78.7199 14.96 66.7767 14.96 59.6189 14.7896C52.461 14.6193 58.5377 14.479 73.1337 14.479C87.7298 14.479 93.5762 14.6193 86.1481 14.7896Z" fill="#656D77" fill-opacity="0.46"/>
<path d="M38.836 39.0882C38.6458 42.6753 38.4756 40.1904 38.4756 33.5772C38.4756 26.9639 38.6358 24.0381 38.836 27.0641C39.0262 30.0902 39.0362 35.501 38.836 39.0882Z" fill="#656D77" fill-opacity="0.46"/>
<path d="M259.128 54.539C259.058 42.9158 259.379 33.1062 259.839 32.7455C260.3 32.3747 260.94 32.0641 261.261 32.0541C261.581 32.0441 262.412 32.6152 263.113 33.3066C263.804 34.008 264.354 35.0301 264.334 35.5812C264.304 36.1323 263.844 35.7916 263.313 34.8297C262.782 33.8677 261.892 33.0761 261.341 33.0761C260.71 33.0761 260.33 40.8517 260.32 54.3687C260.31 70.1402 260.64 76.042 261.571 77.1141C262.682 78.3867 262.612 78.3867 261.051 77.1141C259.429 75.8015 259.239 73.557 259.128 54.539Z" fill="#656D77" fill-opacity="0.46"/>
<path d="M244.572 53.547C244.432 53.3066 246.324 48.8276 248.777 43.5972C251.23 38.3567 253.402 34.0782 253.612 34.0782C253.823 34.0782 251.931 38.5571 249.408 44.028C246.885 49.509 244.713 53.7875 244.572 53.547Z" fill="#656D77" fill-opacity="0.46"/>
<path d="M322.458 44.3487C322.428 41.4529 322.668 38.4168 322.989 37.5852C323.319 36.7535 323.65 36.0822 323.74 36.0822C323.84 36.0822 323.91 39.3487 323.91 43.3467C323.91 47.3447 324.24 51.7334 324.651 53.1162C325.211 55.01 325.041 54.8897 323.95 52.6152C323.149 50.9619 322.478 47.2444 322.458 44.3487Z" fill="#656D77" fill-opacity="0.46"/>
<path d="M254.583 76.543C256.175 76.2023 256.355 74.2985 256.566 56.3727L256.786 36.5832L257.076 55.6212C257.236 66.0921 257.136 75.2203 256.856 75.9117C256.566 76.6031 255.545 77.1141 254.583 77.044C252.912 76.9338 252.912 76.9137 254.583 76.543Z" fill="#656D77" fill-opacity="0.46"/>
<path d="M362.492 54.6192C363.764 52.044 364.545 48.2765 364.655 44.0982C364.805 38.0761 364.855 37.9659 365.205 42.5952C365.415 45.3507 365.355 48.9579 365.075 50.6112C364.785 52.2645 363.644 54.7394 360.51 58.6272L362.492 54.6192Z" fill="#656D77" fill-opacity="0.46"/>
<path d="M272.013 53.8577C268.789 47.1142 265.966 40.9218 265.736 40.0902C265.505 39.2585 268.259 44.6793 271.862 52.1142C275.456 59.549 278.28 65.7514 278.129 65.8817C277.989 66.0119 275.226 60.6011 272.013 53.8577Z" fill="#656D77" fill-opacity="0.46"/>
<path d="M248.337 77.8957C246.404 78.1061 242.801 78.1061 240.328 77.8957C237.845 77.6853 239.427 77.5149 243.832 77.5049C248.236 77.5049 250.259 77.6752 248.337 77.8957Z" fill="#656D77" fill-opacity="0.46"/>
<path d="M277.369 77.8957C275.436 78.1061 271.832 78.1061 269.36 77.8957C266.877 77.6853 268.459 77.5149 272.864 77.5049C277.268 77.5049 279.291 77.6752 277.369 77.8957Z" fill="#656D77" fill-opacity="0.46"/>
<path d="M630.497 123.757C630.307 127.615 630.147 124.679 630.147 117.244C630.147 109.809 630.307 106.643 630.497 110.23C630.687 113.817 630.687 119.9 630.497 123.757Z" fill="#656D77" fill-opacity="0.46"/>
<path d="M688.321 105.962C685.017 106.162 679.832 106.162 676.808 105.962C673.775 105.761 676.478 105.601 682.815 105.601C689.142 105.601 691.625 105.761 688.321 105.962Z" fill="#656D77" fill-opacity="0.46"/>
<path d="M477.088 133.006C474.886 133.216 471.733 133.216 470.081 132.996C468.429 132.775 470.231 132.595 474.085 132.605C477.939 132.605 479.291 132.785 477.088 133.006Z" fill="#656D77" fill-opacity="0.46"/>
<path d="M444.132 153.567C443.892 154.258 443.672 154.028 443.632 153.066C443.561 151.543 444.543 151.312 458.568 151.312L458.087 224.959L457.567 152.314H451.06C446.745 152.314 444.402 152.735 444.132 153.567Z" fill="#656D77" fill-opacity="0.46"/>
<path d="M376.978 160.831L377.289 157.575C377.459 155.781 378.129 154.328 378.79 154.338C379.441 154.338 380.652 154.819 381.483 155.4C382.664 156.232 382.504 156.332 380.732 155.891C378.88 155.421 378.48 155.731 378.52 157.575C378.55 158.817 377.979 160.37 377.269 161.022C376.558 161.673 372.373 162.354 359.959 162.835L358.828 179.869L358.598 171.853C358.408 165.23 358.668 163.627 360.09 162.635C361.041 161.964 365.225 161.292 376.978 160.831Z" fill="#656D77" fill-opacity="0.46"/>
<path d="M404.509 161.913C397.23 161.833 396.99 161.753 396.83 159.328C396.7 157.244 396.74 157.204 397.08 159.078C397.461 161.132 398.142 161.362 412.017 161.984L404.509 161.913Z" fill="#656D77" fill-opacity="0.46"/>
<path d="M173.014 180.911C172.874 178.647 173.754 177.054 176.748 174.148C178.9 172.064 180.882 170.35 181.153 170.35C181.423 170.35 179.991 172.044 177.969 174.108C175.356 176.763 174.285 178.747 174.295 180.871C174.295 182.525 175.076 184.679 176.027 185.661C176.978 186.643 179.11 187.505 183.766 187.685L180.762 188.076C178.61 188.356 177.108 187.815 175.476 186.172C174.225 184.909 173.114 182.545 173.014 180.911Z" fill="#656D77" fill-opacity="0.46"/>
<path d="M632.259 179.639C626.753 179.849 623.149 179.679 624.25 179.268C625.352 178.847 630.527 178.527 635.763 178.557C640.989 178.577 644.593 178.747 643.772 178.927C642.941 179.108 637.765 179.428 632.259 179.639Z" fill="#656D77" fill-opacity="0.46"/>
<path d="M473.034 219.949L472.804 199.659L472.583 179.368H487.6V197.404C487.6 207.324 488.05 216.563 488.601 217.945C489.152 219.318 491.064 221.112 492.856 221.913C494.768 222.775 495.389 223.396 494.357 223.416C493.386 223.436 491.364 222.364 487.099 218.627L486.599 180.37H473.585L473.034 219.949Z" fill="#656D77" fill-opacity="0.46"/>
<path d="M509.694 218.947L509.654 199.158L509.614 179.368H524.631L524.17 222.955L523.63 180.37H510.615V219.448L507.612 220.951C505.96 221.773 504.378 222.344 504.098 222.204C503.818 222.064 504.969 221.272 509.694 218.947Z" fill="#656D77" fill-opacity="0.46"/>
<path d="M591.204 180.621C587.069 180.761 583.696 180.531 583.696 180.12C583.696 179.709 587.3 179.368 599.713 179.368V231.472H584.697L585.157 181.873L585.698 230.47H598.712V180.37L591.204 180.621Z" fill="#656D77" fill-opacity="0.46"/>
<path d="M613.228 187.384C614.049 185.731 615.921 183.477 617.383 182.374C618.844 181.272 620.536 180.37 621.137 180.37C621.748 180.38 620.737 181.262 618.895 182.334C617.062 183.406 614.92 185.661 614.139 187.344C613.358 189.018 612.728 191.964 612.728 193.897C612.728 195.831 613.398 198.757 614.229 200.41C615.26 202.464 617.703 204.378 621.988 206.472C625.432 208.156 627.114 209.238 625.742 208.877C624.36 208.517 621.327 207.134 618.985 205.821C616.642 204.499 614.049 202.064 613.228 200.41C612.397 198.757 611.727 195.831 611.727 193.897C611.727 191.964 612.397 189.038 613.228 187.384Z" fill="#656D77" fill-opacity="0.46"/>
<path d="M650.269 186.883L650.71 183.376C651.07 180.481 651.21 180.31 651.51 182.374C651.711 183.747 651.51 185.791 651.07 186.913C650.319 188.817 649.949 188.867 640.258 186.503L650.269 186.883Z" fill="#656D77" fill-opacity="0.46"/>
<path d="M228.305 191.392C223.9 187.535 220.386 184.108 220.506 183.767C220.616 183.436 224.31 186.412 228.715 190.39C233.12 194.368 236.634 197.795 236.524 198.016C236.403 198.226 232.709 195.25 228.305 191.392Z" fill="#656D77" fill-opacity="0.46"/>
<path d="M359.679 203.186C358.858 202.364 358.418 198.998 358.428 193.647L358.448 185.38H413.508V193.396C413.508 199.378 413.108 201.793 411.937 202.915C410.625 204.168 406.23 204.418 385.658 204.438C367.037 204.448 360.64 204.138 359.679 203.186Z" fill="#656D77" fill-opacity="0.46"/>
<path d="M127.033 190.811C126.933 189.108 127.233 187.414 127.694 187.054C128.144 186.683 129.235 186.392 130.106 186.402C130.977 186.402 133.17 187.875 134.962 189.659C136.764 191.432 138.225 193.236 138.215 193.647C138.205 194.058 136.854 192.825 135.202 190.891C133.43 188.827 131.268 187.374 129.946 187.374C127.824 187.354 127.734 187.645 128.375 192.134C128.805 195.16 128.715 196.352 128.134 195.4C127.634 194.579 127.133 192.505 127.033 190.811Z" fill="#656D77" fill-opacity="0.46"/>
<path d="M569.43 189.919C573.284 190.35 573.695 190.18 573.815 188.136C573.945 186.082 573.985 186.102 574.355 188.386C574.576 189.759 574.636 190.992 574.476 191.112C574.315 191.222 572.153 190.901 565.175 189.448L569.43 189.919Z" fill="#656D77" fill-opacity="0.46"/>
<path d="M539.647 231.472L539.867 209.679L540.098 187.885L540.648 230.47H553.663L553.613 213.186C553.573 197.735 553.763 195.751 555.365 194.448C556.936 193.176 557.006 193.176 555.895 194.448C554.974 195.501 554.634 200.751 554.664 231.472H539.647Z" fill="#656D77" fill-opacity="0.46"/>
<path d="M140.848 205.42C141.769 204.048 143.421 201.903 144.532 200.661C145.774 199.278 147.736 198.386 149.628 198.366C151.43 198.336 153.322 199.068 154.173 200.12C155.444 201.683 155.444 201.753 154.173 200.641C153.372 199.949 151.17 199.378 149.288 199.388C146.364 199.408 145.423 200.05 143.001 203.667C141.429 206.012 140.158 209.168 140.178 210.681C140.188 212.404 141.048 214.008 142.45 214.949C143.691 215.781 144.252 216.442 143.701 216.422C143.151 216.402 141.899 215.611 140.918 214.659C139.937 213.717 139.146 211.813 139.156 210.43C139.176 209.058 139.937 206.803 140.848 205.42Z" fill="#656D77" fill-opacity="0.46"/>
<path d="M652.251 210.681C651.981 209.438 650.079 207.294 648.007 205.921C645.944 204.539 644.823 203.406 645.504 203.416C646.195 203.416 648.317 204.879 650.219 206.673C653.473 209.729 653.683 210.3 653.553 215.941C653.443 220.961 653.362 221.212 653.082 217.444C652.892 214.969 652.521 211.923 652.251 210.681Z" fill="#656D77" fill-opacity="0.46"/>
<path d="M152.371 219.719C152.511 217.505 153.893 215.05 156.736 211.953C159.579 208.857 161.651 207.454 163.313 207.515C165.485 207.595 165.415 207.695 162.682 208.527C161.01 209.038 158.257 211.132 156.566 213.176C154.814 215.3 153.422 218.196 153.342 219.929C153.252 221.593 153.752 223.527 154.453 224.228C155.144 224.919 156.846 225.501 158.217 225.501C159.659 225.501 161.841 224.318 163.353 222.725C164.805 221.202 166.497 218.937 167.107 217.695C167.728 216.452 168.238 214.428 168.248 213.186C168.258 211.943 167.698 210.28 166.997 209.479C165.886 208.206 165.956 208.206 167.528 209.479C168.519 210.28 169.3 211.943 169.28 213.186C169.25 214.428 168.729 216.452 168.108 217.695C167.498 218.937 165.586 221.422 163.854 223.226C161.911 225.26 159.779 226.482 158.217 226.452C156.846 226.432 154.914 225.631 153.933 224.679C152.821 223.607 152.231 221.743 152.371 219.719Z" fill="#656D77" fill-opacity="0.46"/>
<path d="M180.862 224.709C181.193 223.196 180.962 220.831 180.342 219.448C179.271 217.064 179.291 217.044 180.752 218.947C181.593 220.05 182.274 221.743 182.264 222.705C182.254 223.667 181.613 225.701 180.842 227.214C180.071 228.727 178.169 231.102 176.628 232.474C174.115 234.709 174.165 234.569 177.028 231.222C178.8 229.158 180.522 226.222 180.862 224.709Z" fill="#656D77" fill-opacity="0.46"/>
<path d="M627.484 224.919C623.77 224.669 619.715 224.018 618.474 223.476C616.622 222.665 616.842 222.585 619.725 223.046C621.658 223.346 625.712 223.997 634.241 225.37L627.484 224.919Z" fill="#656D77" fill-opacity="0.46"/>
<path d="M164.024 229.669C163.914 228.126 164.454 226.322 165.225 225.661C165.996 224.999 166.857 224.458 167.127 224.458C167.408 224.458 167.087 225.02 166.416 225.711C165.746 226.402 165.185 228.096 165.165 229.468C165.155 230.851 165.726 232.494 166.436 233.136C167.147 233.777 169.079 234.498 173.734 235.18L170.481 235.33C168.699 235.41 166.557 234.799 165.726 233.977C164.905 233.156 164.134 231.212 164.024 229.669Z" fill="#656D77" fill-opacity="0.46"/>
<path d="M181.743 230.591L184.126 228.527C185.427 227.394 187.349 226.462 188.381 226.462C189.412 226.462 191.224 227.474 192.395 228.717C194.037 230.45 194.377 231.673 193.867 233.977C193.496 235.631 192.725 237.434 192.165 237.985C191.524 238.607 191.554 237.855 192.255 235.981C192.876 234.328 193.126 231.963 192.815 230.721C192.475 229.318 191.234 228.236 189.562 227.855C187.83 227.464 185.938 227.845 181.743 230.591Z" fill="#656D77" fill-opacity="0.46"/>
<path d="M482.074 230.971C480.152 230.15 478.6 229.228 478.63 228.927C478.66 228.637 479.681 228.947 480.883 229.619C482.094 230.3 486.228 231.152 497.09 232.184L491.334 232.324C488.121 232.414 484.036 231.813 482.074 230.971Z" fill="#656D77" fill-opacity="0.46"/>
<path d="M631.548 231.573C637.215 231.172 642.14 230.541 642.47 230.16C642.811 229.779 643.582 229.478 644.172 229.498C644.773 229.519 644.352 230.06 643.251 230.711C642.15 231.362 636.754 231.983 621.227 232.284L631.548 231.573Z" fill="#656D77" fill-opacity="0.46"/>
<path d="M443.531 245.43C446.565 243.757 449.468 241.963 449.989 241.442C450.519 240.921 451.06 240.49 451.21 240.49C451.35 240.49 451.26 240.941 451.01 241.492C450.749 242.044 448.177 243.847 445.283 245.49C442.4 247.144 439.577 248.486 439.026 248.476C438.476 248.476 440.508 247.104 443.531 245.43Z" fill="#656D77" fill-opacity="0.46"/>
<path d="M359.95 202.915L359.659 194.649L359.369 186.382H412.508L412.548 193.647C412.578 198.346 412.137 201.352 411.296 202.144C410.335 203.066 403.678 203.316 359.95 202.915Z" fill="#6D6F71"/>
</svg>
